# xmcd
#
# Track frame offsets: 
#        150
#        22253
#        38113
#        64643
#        79800
#        96700
#        119185
#        138813
#
# Disc length: 2132 seconds
#
# Revision: 2
# Processed by: cddbd v1.5.2PL0 Copyright (c) Steve Scherf et al.
# Submitted via: ExactAudioCopyFreeDBPlugin 1.0
#
DISCID=73085208
DTITLE=Ryszard Rynkowski - Szczęśliwej Drogi Już Czas
DYEAR=1991
DGENRE=Blues
TTITLE0=Wypijmy za błędy
TTITLE1=Czemu nie tańczę na ulicach
TTITLE2=Szczęśliwej drogi już czas
TTITLE3=Swobodny blues
TTITLE4=Bez miłości
TTITLE5=Wszystko już  było prócz nas
TTITLE6=Inny nie będę
TTITLE7=Nie budźcie marzeń ze snu
EXTD=
EXTT0=
EXTT1=
EXTT2=
EXTT3=
EXTT4=
EXTT5=
EXTT6=
EXTT7=
PLAYORDER=
